<!--
Project: Freelancer Web Toolbox
File: preview.svg
Author: Beck Sarbassov
Version: 0.1.0
Release Date: 2026-06-16
Last Updated: 2026-06-16
Copyright: © Beck Sarbassov. All rights reserved.

EN: Lightweight SVG preview of the toolbox dashboard.
RU: Лёгкое SVG-превью панели инструментов.
-->
<svg width="520" height="340" viewBox="0 0 520 340" fill="none" xmlns="http://www.w3.org/2000/svg" role="img" aria-labelledby="title desc">
  <title id="title">Freelancer Web Toolbox preview</title>
  <desc id="desc">A clean dashboard preview with tool cards and a saved results panel.</desc>
  <rect width="520" height="340" rx="8" fill="#F5F7F4"/>
  <rect x="24" y="24" width="472" height="54" rx="8" fill="#FFFFFF" stroke="#D8E1DC"/>
  <rect x="42" y="40" width="34" height="24" rx="6" fill="#0F766E"/>
  <rect x="92" y="39" width="170" height="10" rx="5" fill="#17211F"/>
  <rect x="92" y="55" width="110" height="8" rx="4" fill="#61706B"/>
  <rect x="374" y="38" width="92" height="24" rx="6" fill="#E7F5F2" stroke="#BADBD4"/>
  <rect x="24" y="98" width="300" height="218" rx="8" fill="#FFFFFF" stroke="#D8E1DC"/>
  <rect x="42" y="116" width="150" height="12" rx="6" fill="#17211F"/>
  <rect x="42" y="140" width="116" height="28" rx="6" fill="#0F766E"/>
  <rect x="170" y="140" width="116" height="28" rx="6" fill="#FFFFFF" stroke="#D8E1DC"/>
  <g>
    <rect x="42" y="190" width="78" height="70" rx="8" fill="#EEF5F2" stroke="#D8E1DC"/>
    <rect x="134" y="190" width="78" height="70" rx="8" fill="#FFF4D8" stroke="#E5D2A0"/>
    <rect x="226" y="190" width="78" height="70" rx="8" fill="#EEF5F2" stroke="#D8E1DC"/>
    <rect x="56" y="210" width="42" height="8" rx="4" fill="#0F766E"/>
    <rect x="148" y="210" width="44" height="8" rx="4" fill="#B7791F"/>
    <rect x="240" y="210" width="40" height="8" rx="4" fill="#0F766E"/>
    <rect x="56" y="228" width="48" height="7" rx="3.5" fill="#61706B"/>
    <rect x="148" y="228" width="46" height="7" rx="3.5" fill="#61706B"/>
    <rect x="240" y="228" width="42" height="7" rx="3.5" fill="#61706B"/>
  </g>
  <rect x="340" y="98" width="156" height="218" rx="8" fill="#FFFFFF" stroke="#D8E1DC"/>
  <rect x="358" y="118" width="98" height="10" rx="5" fill="#17211F"/>
  <rect x="358" y="144" width="120" height="48" rx="6" fill="#EEF5F2" stroke="#D8E1DC"/>
  <rect x="358" y="204" width="120" height="48" rx="6" fill="#EEF5F2" stroke="#D8E1DC"/>
  <rect x="374" y="160" width="76" height="7" rx="3.5" fill="#61706B"/>
  <rect x="374" y="220" width="70" height="7" rx="3.5" fill="#61706B"/>
</svg>
